<svg xmlns="http://www.w3.org/2000/svg" viewBox="0 0 193.52 193.53"><defs><style>.a{fill:#3b3b3c;}</style></defs><path class="a" d="M158.45,287.91l.77-1.07a6.16,6.16,0,0,0,1.57,1.75,2,2,0,0,0,1.15.43,1,1,0,0,0,.84-.38.88.88,0,0,0,.17-.5,2.61,2.61,0,0,0-.3-.91l-.73-1.5a4.54,4.54,0,0,1-.41-1.13,2.26,2.26,0,0,1,0-.78,1.81,1.81,0,0,1,.32-.69,1.94,1.94,0,0,1,1.44-.82,3.21,3.21,0,0,1,2.16.79,8.66,8.66,0,0,1,1.63,1.49l-.72,1a5.75,5.75,0,0,0-1.49-1.63,2.22,2.22,0,0,0-1-.45.72.72,0,0,0-.67.27.91.91,0,0,0-.14.38,1.44,1.44,0,0,0,.22.74l.82,1.66a4.23,4.23,0,0,1,.52,1.7,1.94,1.94,0,0,1-.4,1.22,2.14,2.14,0,0,1-1,.76,2.28,2.28,0,0,1-1.33.09,4.8,4.8,0,0,1-1.7-.85A11.77,11.77,0,0,1,158.45,287.91Z" transform="translate(-115.84 -120.21)"/><path class="a" d="M166.49,293.46l3.91-6.82,1.37.78-3.39,5.91,3.18,1.82-.52.92Z" transform="translate(-115.84 -120.21)"/><path class="a" d="M173.65,297.39l5.52-6.15,1.44.63L179.44,300l-1.49-.66.29-2.05-2.18-1-1.41,1.57Zm3.09-1.89,1.65.73.44-3.06Zm1.95-5.2.48-1.08,1.07.48-.47,1.08Zm1.79.8L181,290l1.08.48-.48,1.08Z" transform="translate(-115.84 -120.21)"/><path class="a" d="M182.61,301.14l2.41-7.48,1.39.44,1.16,5.71h0l1.56-4.82,1,.32-2.41,7.48-1.31-.42-1.18-5.9h0l-1.61,5Z" transform="translate(-115.84 -120.21)"/><path class="a" d="M196.92,304.77a7.51,7.51,0,0,1-.8,0c-.26,0-.52,0-.77,0a6.07,6.07,0,0,1-.7-.11,3.79,3.79,0,0,1-1.79-.89,3.22,3.22,0,0,1-1-1.65,4.84,4.84,0,0,1,0-2.24,5,5,0,0,1,.86-2,3.39,3.39,0,0,1,1.51-1.17,4.16,4.16,0,0,1,2.38-.05,7.08,7.08,0,0,1,1.89.67l-.25,1.22a4.94,4.94,0,0,0-.56-.37c-.21-.11-.43-.21-.65-.3a4.11,4.11,0,0,0-.6-.19,2.14,2.14,0,0,0-1.25.1,2.19,2.19,0,0,0-1.05.88,4.43,4.43,0,0,0-.63,1.55,3.35,3.35,0,0,0,.2,2.27,2.19,2.19,0,0,0,1.59,1.19l.31,0,.58-2.72,1.47.31Z" transform="translate(-115.84 -120.21)"/><path class="a" d="M209.47,306.27l0-7.87,2.81,0a2.69,2.69,0,0,1,2.36,1,4.68,4.68,0,0,1,.68,2.79,6.42,6.42,0,0,1-.34,2.17,3.08,3.08,0,0,1-1,1.43,3.47,3.47,0,0,1-2.07.51Zm1.59-1h.5a1.85,1.85,0,0,0,1.58-.64,3.83,3.83,0,0,0,.5-2.23,5.06,5.06,0,0,0-.17-1.45,2.22,2.22,0,0,0-.61-1,2,2,0,0,0-1.41-.43h-.37Z" transform="translate(-115.84 -120.21)"/><path class="a" d="M220.55,299.09l-1,.1.88-1.66,1.58-.16Z" transform="translate(-115.84 -120.21)"/><path class="a" d="M237.46,302.79l-2.37-7.5,1.5-.47,2.06,6.49,3.49-1.11.32,1Z" transform="translate(-115.84 -120.21)"/><path class="a" d="M245.92,299.87l-3.14-7.21,4.51-2,.42,1L244.65,293l.88,2,2.58-1.12.39.9-2.58,1.12,1,2.34,3.32-1.44.42,1Z" transform="translate(-115.84 -120.21)"/><path class="a" d="M253.93,296.1l-.64-1.15a6.15,6.15,0,0,0,2.24-.68,2,2,0,0,0,.88-.87.94.94,0,0,0,0-.92.86.86,0,0,0-.37-.36,2.39,2.39,0,0,0-1-.11l-1.66,0a4.67,4.67,0,0,1-1.21-.1,2,2,0,0,1-.69-.35,1.88,1.88,0,0,1-.5-.58,2,2,0,0,1-.14-1.65,3.34,3.34,0,0,1,1.63-1.63,8.92,8.92,0,0,1,2-.85l.61,1.09a5.64,5.64,0,0,0-2.1.66,2.16,2.16,0,0,0-.84.74.7.7,0,0,0,0,.71.89.89,0,0,0,.28.3,1.59,1.59,0,0,0,.78.1l1.84,0a4.22,4.22,0,0,1,1.77.24,2,2,0,0,1,.93.87,2.14,2.14,0,0,1,.28,1.21,2.21,2.21,0,0,1-.48,1.24,4.47,4.47,0,0,1-1.48,1.18A11.59,11.59,0,0,1,253.93,296.1Z" transform="translate(-115.84 -120.21)"/><path class="a" d="M261.85,291.42l-.76-1.08a6.12,6.12,0,0,0,2.16-.91,2,2,0,0,0,.78-.95.93.93,0,0,0-.09-.92.87.87,0,0,0-.41-.32,2.39,2.39,0,0,0-1,0l-1.65.19a4.61,4.61,0,0,1-1.21,0,2,2,0,0,1-.73-.28,1.82,1.82,0,0,1-.55-.52,2,2,0,0,1-.31-1.63,3.3,3.3,0,0,1,1.46-1.79,8.53,8.53,0,0,1,1.94-1.05l.71,1a5.8,5.8,0,0,0-2,.87,2,2,0,0,0-.75.83.69.69,0,0,0,0,.71.72.72,0,0,0,.31.26,1.5,1.5,0,0,0,.78,0l1.83-.23a4.31,4.31,0,0,1,1.78.06,2,2,0,0,1,1,.77,2.14,2.14,0,0,1,.4,1.17,2.25,2.25,0,0,1-.35,1.29,4.86,4.86,0,0,1-1.35,1.33A12.7,12.7,0,0,1,261.85,291.42Z" transform="translate(-115.84 -120.21)"/><path class="a" d="M141.54,167l1-1.24,4,3.12a3.26,3.26,0,0,0,1.12.66,1.39,1.39,0,0,0,.65,0,1.2,1.2,0,0,0,.52-.4,1.23,1.23,0,0,0,.26-1,2.46,2.46,0,0,0-1-1.25l-4-3.11.81-1,3.82,3a4.81,4.81,0,0,1,1.47,1.55,1.85,1.85,0,0,1,.09,1.23,3.25,3.25,0,0,1-.63,1.26,3.51,3.51,0,0,1-1.09.94,2.25,2.25,0,0,1-1.3.24,3.7,3.7,0,0,1-1.67-.85Z" transform="translate(-115.84 -120.21)"/><path class="a" d="M153,165.3l-5.65-5.47,1.26-1.3,3.27,1.7h0L150.13,157l1.16-1.21,5.65,5.47-.82.84-4.33-4.19h0l2.06,3.54-.83.86-3.6-1.95h0l4.35,4.2Z" transform="translate(-115.84 -120.21)"/><path class="a" d="M159.41,159l-5-6,3.77-3.15.68.8-2.56,2.14,1.42,1.71,2.16-1.81.63.76-2.16,1.8,1.64,2,2.78-2.32.67.81Z" transform="translate(-115.84 -120.21)"/><path class="a" d="M164.22,145.43l.28-.19,6.21,5.31-1.36.91-1.57-1.35-2,1.33.57,2-.92.61-2.25-8,.28-.18a1,1,0,0,1-.44-.09.86.86,0,0,1-.31-.29.79.79,0,0,1-.12-.64.78.78,0,0,1,.36-.54.82.82,0,0,1,.63-.13.85.85,0,0,1,.55.37.78.78,0,0,1,.13.37A1,1,0,0,1,164.22,145.43Zm-.57,0a.38.38,0,0,0,.16-.25.39.39,0,0,0-.06-.3.37.37,0,0,0-.24-.16.39.39,0,0,0-.3.06.41.41,0,0,0-.17.25.38.38,0,0,0,.06.29.41.41,0,0,0,.25.17A.39.39,0,0,0,163.65,145.42Zm1.85,5,1.5-1-2.35-2Z" transform="translate(-115.84 -120.21)"/><path class="a" d="M180.53,145.43l-2.89-7.31,2.61-1a2.75,2.75,0,0,1,2.56,0,4.72,4.72,0,0,1,1.66,2.33,6.41,6.41,0,0,1,.49,2.15,3,3,0,0,1-.42,1.71,3.44,3.44,0,0,1-1.73,1.24Zm1.09-1.56.47-.18a1.83,1.83,0,0,0,1.22-1.19,3.73,3.73,0,0,0-.36-2.25,5.49,5.49,0,0,0-.7-1.29,2.23,2.23,0,0,0-.95-.71,2,2,0,0,0-1.47.12l-.34.14Z" transform="translate(-115.84 -120.21)"/><path class="a" d="M188.73,142.37l-.28-1,1.76-.49-1.53-5.55-1.77.49-.28-1,5.05-1.39.28,1-1.76.49,1.53,5.55,1.77-.49.28,1Z" transform="translate(-115.84 -120.21)"/><path class="a" d="M196.87,140.22l-.21-1.3a6.14,6.14,0,0,0,2.34.13,2,2,0,0,0,1.12-.51,1,1,0,0,0,.32-.87.87.87,0,0,0-.23-.47,2.45,2.45,0,0,0-.85-.43l-1.58-.55a3.85,3.85,0,0,1-1.09-.51,2.2,2.2,0,0,1-.54-.56,2.09,2.09,0,0,1-.27-.71,2,2,0,0,1,.44-1.6,3.24,3.24,0,0,1,2.1-1,8.63,8.63,0,0,1,2.2-.1l.2,1.23a5.74,5.74,0,0,0-2.2-.11,2.19,2.19,0,0,0-1,.41.7.7,0,0,0-.28.66.81.81,0,0,0,.16.37,1.58,1.58,0,0,0,.69.37l1.75.6a4.25,4.25,0,0,1,1.57.82,2,2,0,0,1,.58,1.15,2.13,2.13,0,0,1-.15,1.22,2.28,2.28,0,0,1-.88,1,4.85,4.85,0,0,1-1.79.6A12.53,12.53,0,0,1,196.87,140.22Z" transform="translate(-115.84 -120.21)"/><path class="a" d="M211.07,138.51a7.19,7.19,0,0,1-2.32.56,3.72,3.72,0,0,1-2-.41,3.38,3.38,0,0,1-1.39-1.39,5.12,5.12,0,0,1-.57-2.12,4.92,4.92,0,0,1,.31-2.09,3.4,3.4,0,0,1,1.15-1.56,4.21,4.21,0,0,1,2.33-.69,8.73,8.73,0,0,1,2.07.13l.07,1.27a5.92,5.92,0,0,0-2.06-.35,2.15,2.15,0,0,0-1.19.42,2.11,2.11,0,0,0-.78,1.16,4.82,4.82,0,0,0-.2,1.66,3.25,3.25,0,0,0,.8,2.1,2.07,2.07,0,0,0,1.74.73,4.64,4.64,0,0,0,2-.63Z" transform="translate(-115.84 -120.21)"/><path class="a" d="M219.52,138.87a6.15,6.15,0,0,1-.79.16,6.94,6.94,0,0,1-.77.08,5.71,5.71,0,0,1-.71,0,3.91,3.91,0,0,1-1.91-.6,3.26,3.26,0,0,1-1.25-1.47,4.77,4.77,0,0,1-.35-2.21,5.14,5.14,0,0,1,.53-2.13,3.47,3.47,0,0,1,1.31-1.4,4.2,4.2,0,0,1,2.34-.42,7.22,7.22,0,0,1,2,.36l-.06,1.25a3.42,3.42,0,0,0-.61-.28,5.91,5.91,0,0,0-.69-.19,3,3,0,0,0-.62-.1,2.18,2.18,0,0,0-2.12,1.33,4.34,4.34,0,0,0-.37,1.63,3.3,3.3,0,0,0,.55,2.21,2.17,2.17,0,0,0,1.76.92h.31l.14-2.78,1.51.07Z" transform="translate(-115.84 -120.21)"/><path class="a" d="M225.06,140a2.69,2.69,0,0,1-2.15-1.46,5.13,5.13,0,0,1-.32-3.1,5.19,5.19,0,0,1,1.24-2.85,3,3,0,0,1,4.66.73,6.09,6.09,0,0,1-.93,5.94A2.68,2.68,0,0,1,225.06,140Zm.16-1a1.09,1.09,0,0,0,.78-.18,1.94,1.94,0,0,0,.65-.82,6.68,6.68,0,0,0,.48-1.82,7.33,7.33,0,0,0,.11-1.87,2.14,2.14,0,0,0-.36-1,1.1,1.1,0,0,0-.71-.42,1.08,1.08,0,0,0-.79.19,1.91,1.91,0,0,0-.64.82,6.85,6.85,0,0,0-.47,1.82,7.39,7.39,0,0,0-.11,1.88,1.88,1.88,0,0,0,.37,1A1,1,0,0,0,225.22,138.92Z" transform="translate(-115.84 -120.21)"/><path class="a" d="M231.39,141l2-7.59,1.53.41-1.76,6.58,3.54.94-.27,1Z" transform="translate(-115.84 -120.21)"/><path class="a" d="M239.36,143.32l2.83-7.34,5.07,2-.38,1-3.6-1.39-.89,2.32,3,1.18-.36.91-3-1.17-1.2,3.11Z" transform="translate(-115.84 -120.21)"/><path class="a" d="M259.36,153.44a7,7,0,0,1-2.2-.93A3.7,3.7,0,0,1,255.8,151a3.41,3.41,0,0,1-.28-1.95,5.22,5.22,0,0,1,2.3-3.54,3.44,3.44,0,0,1,1.85-.57,4.34,4.34,0,0,1,2.28.84,8,8,0,0,1,1.58,1.34l-.7,1.06a5.85,5.85,0,0,0-1.44-1.51,2.13,2.13,0,0,0-1.2-.37,2.2,2.2,0,0,0-1.33.47,4.55,4.55,0,0,0-1.14,1.21,3.31,3.31,0,0,0-.62,2.16,2.11,2.11,0,0,0,1,1.63,4.86,4.86,0,0,0,2,.67Z" transform="translate(-115.84 -120.21)"/><path class="a" d="M261.93,155.7l5-6.07,1.22,1-4.33,5.25,2.83,2.33L266,159Z" transform="translate(-115.84 -120.21)"/><path class="a" d="M273.6,155.41l1.1,1.12-3.62,3.55a3.13,3.13,0,0,0-.79,1,1.25,1.25,0,0,0-.06.65,1.11,1.11,0,0,0,.32.56,1.17,1.17,0,0,0,.91.39,2.53,2.53,0,0,0,1.38-.86l3.6-3.53.92.93-3.46,3.39a4.88,4.88,0,0,1-1.73,1.26,1.89,1.89,0,0,1-1.24-.08,3.25,3.25,0,0,1-1.15-.79,3.44,3.44,0,0,1-.8-1.21,2.2,2.2,0,0,1-.05-1.32A3.6,3.6,0,0,1,270,159Z" transform="translate(-115.84 -120.21)"/><path class="a" d="M273.93,167.23l6.16-4.88,1.73,2.18a3.45,3.45,0,0,1,.72,1.27,1.41,1.41,0,0,1-.07.93,1.91,1.91,0,0,1-.6.77,1.85,1.85,0,0,1-1,.39,2.63,2.63,0,0,1-1.31-.35,3,3,0,0,1,.07,1.67,2.26,2.26,0,0,1-.75,1.08,2,2,0,0,1-1.49.41,2.58,2.58,0,0,1-1.58-1.08Zm1.8.59.52.66a1.36,1.36,0,0,0,.91.62,1.19,1.19,0,0,0,.83-.27,1.27,1.27,0,0,0,.51-1,2.07,2.07,0,0,0-.52-1.29l-.25-.31Zm2.82-2.24.24.3a1.65,1.65,0,0,0,1,.69,1.21,1.21,0,0,0,1-.27.79.79,0,0,0,.36-.61,1.81,1.81,0,0,0-.49-1l-.38-.47Z" transform="translate(-115.84 -120.21)"/><path class="a" d="M212.6,120.21A96.77,96.77,0,1,0,309.36,217,96.87,96.87,0,0,0,212.6,120.21Zm0,4.3A92.46,92.46,0,0,1,296,257H276.37v.67a76,76,0,0,1-127.43.17V257h-19.7A92.44,92.44,0,0,1,212.6,124.51Zm0,184.94a92.55,92.55,0,0,1-81.51-48.85h15.13a79.82,79.82,0,0,0,132.76,0H294.1A92.52,92.52,0,0,1,212.6,309.45Z" transform="translate(-115.84 -120.21)"/><path class="a" d="M160.37,188v43.81a9.43,9.43,0,0,1-.77,3.78,9.84,9.84,0,0,1-5.18,5.18,9.34,9.34,0,0,1-3.79.77H147.7a9.34,9.34,0,0,1-3.79-.77,9.78,9.78,0,0,1-5.17-5.18,9.27,9.27,0,0,1-.78-3.78V188a1,1,0,0,1,1.09-1.08h6.87A1,1,0,0,1,147,188v43.42a1.84,1.84,0,0,0,1.86,1.86h.62a1.84,1.84,0,0,0,1.85-1.86V188a1,1,0,0,1,1.08-1.08h6.88A1,1,0,0,1,160.37,188Z" transform="translate(-115.84 -120.21)"/><path class="a" d="M194.67,186.87a9.51,9.51,0,0,1,3.79.77,9.78,9.78,0,0,1,5.17,5.18,9.34,9.34,0,0,1,.77,3.79v34.61a9.26,9.26,0,0,1-.77,3.78,9.78,9.78,0,0,1-5.17,5.18,9.34,9.34,0,0,1-3.79.77H183.08a1,1,0,0,1-1.08-1.08V188a1,1,0,0,1,1.08-1.08Zm.7,10.12a1.84,1.84,0,0,0-1.86-1.85H191v37.55h2.47a1.86,1.86,0,0,0,1.86-1.86Z" transform="translate(-115.84 -120.21)"/><path class="a" d="M241.72,187.1a9.84,9.84,0,0,1,5.18,5.18,9.46,9.46,0,0,1,.77,3.78v2.48a1.33,1.33,0,0,1-1,1.39l-7,2.55c-.67.2-1,0-1-.77v-5.26a1.84,1.84,0,0,0-1.85-1.85h-.62a1.84,1.84,0,0,0-1.86,1.85v34.92a1.84,1.84,0,0,0,1.86,1.86h.62a1.84,1.84,0,0,0,1.85-1.86V217.62h-2.16v-8.81h10.12a1,1,0,0,1,1.08,1.08v21.87a9.43,9.43,0,0,1-.77,3.78,9.84,9.84,0,0,1-5.18,5.18,9.31,9.31,0,0,1-3.79.77H235a9.34,9.34,0,0,1-3.79-.77,9.78,9.78,0,0,1-5.17-5.18,9.27,9.27,0,0,1-.78-3.78v-35.7a9.3,9.3,0,0,1,.78-3.78,9.78,9.78,0,0,1,5.17-5.18,9.51,9.51,0,0,1,3.79-.77h2.93A9.48,9.48,0,0,1,241.72,187.1Z" transform="translate(-115.84 -120.21)"/><path class="a" d="M285,187.1a9.8,9.8,0,0,1,3.09,2.09,10,10,0,0,1,2.09,3.09,9.46,9.46,0,0,1,.77,3.78v6.19a1.32,1.32,0,0,1-1,1.39l-7,1.08c-.67.2-1-.05-1-.77v-7.5A1.84,1.84,0,0,0,280,194.6h-.62a1.84,1.84,0,0,0-1.85,1.85v34.92a1.84,1.84,0,0,0,1.85,1.86H280a1.84,1.84,0,0,0,1.85-1.86V220.56c0-.72.34-1,1-.78l7,.93a1.32,1.32,0,0,1,1,1.39v9.66a9.43,9.43,0,0,1-.77,3.78,9.8,9.8,0,0,1-2.09,3.09,9.64,9.64,0,0,1-3.09,2.09,9.26,9.26,0,0,1-3.78.77h-2.94a9.26,9.26,0,0,1-3.78-.77,9.84,9.84,0,0,1-5.18-5.18,9.43,9.43,0,0,1-.77-3.78v-35.7a9.46,9.46,0,0,1,.77-3.78,9.84,9.84,0,0,1,5.18-5.18,9.43,9.43,0,0,1,3.78-.77h2.94A9.43,9.43,0,0,1,285,187.1Z" transform="translate(-115.84 -120.21)"/><path class="a" d="M190.57,248.54h-1.09V250h.79v1h-.79v1.61h1.09v-1.43h2v2.91h-6.18V252.6H187v-4.06h-.55v-1.48h6.18v2.72h-2Z" transform="translate(-115.84 -120.21)"/><path class="a" d="M196.3,252.46a.79.79,0,0,0,.43-.09.32.32,0,0,0,.12-.27.28.28,0,0,0-.1-.22,1.53,1.53,0,0,0-.42-.22q-.66-.25-1.17-.48a4.24,4.24,0,0,1-.83-.51,1.84,1.84,0,0,1-.49-.66,2.23,2.23,0,0,1-.16-.9,2.38,2.38,0,0,1,.16-.91,1.53,1.53,0,0,1,.51-.68,2.54,2.54,0,0,1,1-.44,6,6,0,0,1,1.45-.14,6.94,6.94,0,0,1,1.48.15,4.57,4.57,0,0,1,1.16.42v1.62h-1.9c0-.18,0-.3-.14-.36a.65.65,0,0,0-.35-.1.91.91,0,0,0-.43.08.28.28,0,0,0-.13.27.23.23,0,0,0,.14.22,2.37,2.37,0,0,0,.42.17q.52.17,1,.36a3.35,3.35,0,0,1,.81.46,2.15,2.15,0,0,1,.56.68,2.21,2.21,0,0,1,.2,1,2,2,0,0,1-.76,1.75,3.63,3.63,0,0,1-2.22.57,9.13,9.13,0,0,1-1.59-.14,5.8,5.8,0,0,1-1.23-.35v-1.78h2a.64.64,0,0,0,.1.4A.59.59,0,0,0,196.3,252.46Z" transform="translate(-115.84 -120.21)"/><path class="a" d="M200.49,247.06h6.78v2.19h-1.55v-.71h-.58v4.06h.63v1.48H202V252.6h.63v-4.06H202v.71h-1.55Z" transform="translate(-115.84 -120.21)"/><path class="a" d="M208.32,252.6h1.41v1.48h-1.41Z" transform="translate(-115.84 -120.21)"/><path class="a" d="M214.34,247.52l2-.46h1.74v5.54h.76v1.48h-4.23V252.6h.87v-4.06h-1.14Z" transform="translate(-115.84 -120.21)"/><path class="a" d="M220.15,252.3a5.7,5.7,0,0,0,.84.21,6.23,6.23,0,0,0,1.11.09,1,1,0,0,0,.83-.32,1.4,1.4,0,0,0,.27-.92v-.19a4.73,4.73,0,0,1-.56.17,2.91,2.91,0,0,1-.76.08,3.48,3.48,0,0,1-.79-.09,1.64,1.64,0,0,1-.68-.32,1.59,1.59,0,0,1-.48-.62,2.39,2.39,0,0,1-.18-1,2.25,2.25,0,0,1,.74-1.87,3.3,3.3,0,0,1,2.1-.58,4.25,4.25,0,0,1,1.34.19,2.47,2.47,0,0,1,1,.57,2.65,2.65,0,0,1,.62,1,4.15,4.15,0,0,1,.21,1.39,7.2,7.2,0,0,1-.22,1.94,3.21,3.21,0,0,1-.68,1.27,2.52,2.52,0,0,1-1.07.71,4.51,4.51,0,0,1-1.42.21,5,5,0,0,1-1.31-.15c-.35-.1-.66-.2-.91-.3Zm2.47-2.29a1.12,1.12,0,0,0,.32,0,1.34,1.34,0,0,0,.26-.08v-.68a.71.71,0,0,0-.15-.51.59.59,0,0,0-.46-.16.6.6,0,0,0-.46.16.9.9,0,0,0-.15.6C222,249.77,222.19,250,222.62,250Z" transform="translate(-115.84 -120.21)"/><path class="a" d="M226.67,252.16a1.82,1.82,0,0,1,.13-.7,1.59,1.59,0,0,1,.32-.5,1.79,1.79,0,0,1,.82-.49v-.09a1.89,1.89,0,0,1-.36-.16,1.49,1.49,0,0,1-.35-.27,1.73,1.73,0,0,1-.25-.42,1.51,1.51,0,0,1-.11-.59,1.74,1.74,0,0,1,.72-1.42,2.9,2.9,0,0,1,.9-.43,5.28,5.28,0,0,1,2.5,0,2.84,2.84,0,0,1,.89.43,1.62,1.62,0,0,1,.53.64,1.72,1.72,0,0,1,.18.78,1.51,1.51,0,0,1-.11.59,1.43,1.43,0,0,1-.27.43,1.27,1.27,0,0,1-.34.27l-.34.15v.09a1.55,1.55,0,0,1,.41.17,1.53,1.53,0,0,1,.41.31,1.49,1.49,0,0,1,.32.48,1.59,1.59,0,0,1,.13.68,1.73,1.73,0,0,1-.2.86,1.77,1.77,0,0,1-.59.66,3,3,0,0,1-1,.42,5.8,5.8,0,0,1-2.62,0,3,3,0,0,1-1-.42,1.79,1.79,0,0,1-.59-.64A1.68,1.68,0,0,1,226.67,252.16Zm3.77-.23a.89.89,0,0,0-.17-.61.87.87,0,0,0-1.06,0,.89.89,0,0,0-.17.61.7.7,0,0,0,.17.51,1,1,0,0,0,1.06,0A.7.7,0,0,0,230.44,251.93Zm-1.31-2.72a.57.57,0,0,0,.15.4.74.74,0,0,0,.92,0,.57.57,0,0,0,.15-.4.71.71,0,0,0-.15-.51.74.74,0,0,0-.92,0A.71.71,0,0,0,229.13,249.21Z" transform="translate(-115.84 -120.21)"/><path class="a" d="M233.59,252.7q.71-.6,1.29-1.14a13.73,13.73,0,0,0,1-1,7.41,7.41,0,0,0,.66-.8,1.15,1.15,0,0,0,.23-.56.71.71,0,0,0-.15-.51.6.6,0,0,0-.46-.16.59.59,0,0,0-.46.16.71.71,0,0,0-.16.51v.45h-1.8v-2.14a3.52,3.52,0,0,1,.52-.21,5.33,5.33,0,0,1,.65-.18,6.83,6.83,0,0,1,.81-.15,8.44,8.44,0,0,1,.87,0,3,3,0,0,1,1.91.51,1.88,1.88,0,0,1,.63,1.53,2.26,2.26,0,0,1-.25,1.05,5,5,0,0,1-.66,1,7,7,0,0,1-.87.85l-.9.76h1.1v-.53h1.75v2h-5.72Z" transform="translate(-115.84 -120.21)"/><polygon class="a" points="154.88 152.85 158.16 153.99 160.97 151.93 160.9 155.41 163.73 157.44 160.4 158.45 159.34 161.76 157.35 158.91 153.87 158.93 155.97 156.16 154.88 152.85"/><polygon class="a" points="38.81 153.07 37.58 156.33 39.56 159.18 36.09 159.02 33.99 161.79 33.07 158.44 29.78 157.29 32.69 155.38 32.76 151.9 35.48 154.08 38.81 153.07"/></svg>